
<svg width="100%" height="100%" viewBox="0 0 1377 550" style="fill-rule:evenodd;clip-rule:evenodd;stroke-linejoin:round;stroke-miterlimit:2;">
    <g transform="matrix(1,0,0,1,-2067.71,917.161)">
        <g transform="matrix(5.61106,0,0,5.61106,-12612.1,1326.02)">
            <g transform="matrix(1,0,0,1.04908,937.962,600.654)">
                <path d="M1882.11,-933.518C1882.11,-937.332 1878.87,-940.429 1874.86,-940.429C1870.86,-940.429 1867.61,-937.332 1867.61,-933.518L1867.61,-906.59C1867.61,-902.775 1870.86,-899.679 1874.86,-899.679C1878.87,-899.679 1882.11,-902.775 1882.11,-906.59L1882.11,-933.518Z" style="fill:rgb(255,61,87);"/>
            </g>
            <g transform="matrix(0.258819,0.965926,-0.835709,0.223928,1568.7,-1958.07)">
                <path d="M1882.11,-932.049C1882.11,-936.674 1878.87,-940.429 1874.86,-940.429C1870.86,-940.429 1867.61,-936.674 1867.61,-932.049L1867.61,-908.058C1867.61,-903.434 1870.86,-899.679 1874.86,-899.679C1878.87,-899.679 1882.11,-903.434 1882.11,-908.058L1882.11,-932.049Z" style="fill:rgb(255,203,0);"/>
            </g>
            <g transform="matrix(1,0,0,1,936.962,556.248)">
                <circle cx="1875.86" cy="-906.679" r="7.25" style="fill:rgb(0,214,71);"/>
            </g>
            <g transform="matrix(75.196,0,0,75.196,2612.47,-353.087)">
                <path d="M0.238,-0.503L0.238,0L0.356,0L0.356,-0.503L0.544,-0.503L0.544,-0.612L0.05,-0.612L0.05,-0.503L0.238,-0.503Z" style="fill:rgb(41,47,76);fill-rule:nonzero;"/>
            </g>
            <g transform="matrix(75.196,0,0,75.196,2653.37,-353.087)">
                <path d="M0.239,-0.612L0.05,0L0.17,0L0.218,-0.147L0.424,-0.147L0.473,0L0.592,0L0.403,-0.612L0.239,-0.612ZM0.321,-0.497L0.396,-0.254L0.246,-0.254L0.321,-0.497Z" style="fill:rgb(41,47,76);fill-rule:nonzero;"/>
            </g>
            <g transform="matrix(75.196,0,0,75.196,2697.89,-353.087)">
                <path d="M0.505,-0.194C0.505,-0.382 0.222,-0.345 0.222,-0.443C0.222,-0.498 0.284,-0.517 0.33,-0.517C0.369,-0.517 0.427,-0.501 0.457,-0.477L0.495,-0.565C0.45,-0.606 0.376,-0.621 0.317,-0.621C0.202,-0.621 0.101,-0.569 0.101,-0.442C0.101,-0.256 0.378,-0.287 0.378,-0.187C0.378,-0.129 0.322,-0.101 0.271,-0.101C0.232,-0.101 0.148,-0.135 0.116,-0.157L0.067,-0.053C0.122,-0.01 0.214,0.01 0.283,0.01C0.401,0.01 0.505,-0.069 0.505,-0.194Z" style="fill:rgb(41,47,76);fill-rule:nonzero;"/>
            </g>
            <g transform="matrix(75.196,0,0,75.196,2737.14,-353.087)">
                <path d="M0.526,-0.612L0.39,-0.612L0.194,-0.39L0.194,-0.612L0.076,-0.612L0.076,0L0.194,0L0.194,-0.292L0.413,0L0.555,0L0.302,-0.34L0.526,-0.612Z" style="fill:rgb(41,47,76);fill-rule:nonzero;"/>
            </g>
            <g transform="matrix(75.196,0,0,75.196,2612.47,-301.754)">
                <path d="M0.238,-0.503L0.238,0L0.356,0L0.356,-0.503L0.544,-0.503L0.544,-0.612L0.05,-0.612L0.05,-0.503L0.238,-0.503Z" style="fill:rgb(41,47,76);fill-rule:nonzero;"/>
            </g>
            <g transform="matrix(75.196,0,0,75.196,2660.82,-301.754)">
                <rect x="0.076" y="-0.612" width="0.117" height="0.612" style="fill:rgb(41,47,76);fill-rule:nonzero;"/>
            </g>
            <g transform="matrix(75.196,0,0,75.196,2682.77,-301.754)">
                <path d="M0.38,-0.38L0.187,-0.612L0.076,-0.612L0.076,0L0.194,0L0.194,-0.442L0.38,-0.215L0.565,-0.444L0.565,0L0.683,0L0.683,-0.612L0.573,-0.612L0.38,-0.38Z" style="fill:rgb(41,47,76);fill-rule:nonzero;"/>
            </g>
            <g transform="matrix(75.196,0,0,75.196,2741.58,-301.754)">
                <path d="M0.194,-0.368L0.194,-0.5L0.496,-0.5L0.496,-0.612L0.076,-0.612L0.076,0L0.496,0L0.496,-0.112L0.194,-0.112L0.194,-0.268L0.434,-0.268L0.434,-0.368L0.194,-0.368Z" style="fill:rgb(41,47,76);fill-rule:nonzero;"/>
            </g>
            <g transform="matrix(1,0,0,1,5,0)">
                <path d="M2785.86,-316.774C2786.78,-316.187 2787.73,-315.636 2788.7,-315.125C2792.14,-313.308 2795.84,-311.99 2799.65,-311.22C2808.14,-309.506 2817.11,-310.524 2824.97,-314.147C2828.95,-315.981 2832.63,-318.461 2835.83,-321.463C2839.06,-324.503 2841.79,-328.074 2843.86,-332C2846.37,-336.75 2847.89,-341.999 2848.3,-347.353C2848.69,-352.395 2848.12,-357.504 2846.59,-362.327C2845.18,-366.816 2842.95,-371.039 2840.06,-374.755C2837.23,-378.389 2833.78,-381.531 2829.91,-384.015C2826.16,-386.411 2822.03,-388.188 2817.72,-389.255C2810.04,-391.156 2801.82,-390.79 2794.34,-388.19C2790.33,-386.796 2786.54,-384.77 2783.16,-382.208C2779.48,-379.431 2776.31,-376.035 2773.76,-372.199L2773.64,-372.006L2768.45,-379.023C2777.3,-391.188 2791.64,-399.102 2807.83,-399.102C2834.69,-399.102 2856.5,-377.293 2856.5,-350.43C2856.5,-323.568 2834.69,-301.758 2807.83,-301.758C2799.93,-301.758 2792.46,-303.645 2785.86,-306.992L2785.86,-316.774Z" style="fill:rgb(41,47,76);"/>
            </g>
        </g>
    </g>
</svg>
